{
.appVersion = "3227";
.formatVersion = 3;
classes = (
{
automatic = 1;
code = "A Aacute Abreve Acircumflex Adieresis Agrave Amacron Aogonek Aring Atilde AE B C Cacute Ccaron Ccedilla Cdotaccent D Eth Dcaron Dcroat E Eacute Ecaron Ecircumflex Edieresis Edotaccent Egrave Emacron Eogonek F G Gbreve Gcommaaccent Gdotaccent H Hbar I IJ Iacute Icircumflex Idieresis Idotaccent Igrave Imacron Iogonek J Jacute K Kcommaaccent L Lacute Lcaron Lcommaaccent Lslash M N Nacute Ncaron Ncommaaccent Ntilde Eng O Oacute Ocircumflex Odieresis Ograve Ohungarumlaut Omacron Oslash Otilde OE P Thorn Q R Racute Rcaron Rcommaaccent S Sacute Scaron Scedilla Scommaaccent Germandbls T Tcaron Tcommaaccent U Uacute Ubreve Ucircumflex Udieresis Ugrave Uhungarumlaut Umacron Uogonek Uring V W Wacute Wcircumflex Wdieresis Wgrave X Y Yacute Ycircumflex Ydieresis Ygrave Z Zacute Zcaron Zdotaccent";
name = Uppercase;
}
);
date = "2023-06-04 20:05:16 +0000";
familyName = "Micro 5";
featurePrefixes = (
{
automatic = 1;
code = "languagesystem DFLT dflt;

languagesystem latn dflt;
languagesystem latn AZE;
languagesystem latn CRT;
languagesystem latn KAZ;
languagesystem latn TAT;
languagesystem latn TRK;
languagesystem latn ROM;
languagesystem latn MOL;
languagesystem latn CAT;
languagesystem latn NLD;
";
name = Languagesystems;
}
);
features = (
{
automatic = 1;
code = "feature locl;
feature ordn;
feature pnum;
feature tnum;
feature case;
";
tag = aalt;
},
{
automatic = 1;
code = "lookup ccmp_Other_1 {
	@CombiningTopAccents = [acutecomb brevecomb caroncomb circumflexcomb commaturnedabovecomb dieresiscomb dotaccentcomb gravecomb hungarumlautcomb macroncomb ringcomb tildecomb];
	lookupflag UseMarkFilteringSet @CombiningTopAccents;
	sub i' @CombiningTopAccents by idotless;
	sub j' @CombiningTopAccents by jdotless;
} ccmp_Other_1;

lookup ccmp_Other_2 {
	lookupflag 0;

glyphs = (
{
glyphname = Aacute;
lastChange = "2023-10-27 19:55:46 +0000";
layers = (
{
anchors = (
{
name = bottom;
pos = (300,0);
},
{
name = top.case;
pos = (150,750);
}
);
layerId = m01;
shapes = (
{
closed = 1;
nodes = (
(0,0,l),
(150,0,l),
(150,150,l),
(0,150,l)
);
},
{
closed = 1;
nodes = (
(0,150,l),
(150,150,l),
(150,300,l),
(0,300,l)
);
},
{
closed = 1;
nodes = (
(0,300,l),
(150,300,l),
(150,450,l),
(0,450,l)
);
},
{
closed = 1;
nodes = (
(0,450,l),
(150,450,l),
(150,600,l),
(0,600,l)
);
},
{
closed = 1;
nodes = (
(150,600,l),
(300,600,l),
(300,750,l),
(150,750,l)
);
},
{
closed = 1;
nodes = (
(300,450,l),
(450,450,l),
(450,600,l),
(300,600,l)
);
},
{
closed = 1;
nodes = (
(300,300,l),
(450,300,l),
(450,450,l),
(300,450,l)
);
},
{
closed = 1;
nodes = (
(300,150,l),
(450,150,l),
(450,300,l),
(300,300,l)
);
},
{
closed = 1;
nodes = (
(300,0,l),
(450,0,l),
(450,150,l),
(300,150,l)
);
},
{
closed = 1;
nodes = (
(150,300,l),
(300,300,l),
(300,450,l),
(150,450,l)
);
},
{
closed = 1;
nodes = (
(150,900,l),
(300,900,l),
(300,1050,l),
(150,1050,l)
);
},
{
closed = 1;
nodes = (
(300,1050,l),
(450,1050,l),
(450,1200,l),
(300,1200,l)
);
}
);
width = 600;
}
);
unicode = 193;
},
{
glyphname = Iacute;
lastChange = "2023-10-27 20:00:25 +0000";
layers = (
{
anchors = (
{
name = bottom;
},
{
name = top.case;
pos = (0,750);
}
);
layerId = m01;
shapes = (
{
closed = 1;
nodes = (
(0,600,l),
(150,600,l),
(150,750,l),
(0,750,l)
);
},
{
closed = 1;
nodes = (
(0,450,l),
(150,450,l),
(150,600,l),
(0,600,l)
);
},
{
closed = 1;
nodes = (
(0,300,l),
(150,300,l),
(150,450,l),
(0,450,l)
);
},
{
closed = 1;
nodes = (
(0,150,l),
(150,150,l),
(150,300,l),
(0,300,l)
);
},
{
closed = 1;
nodes = (
(0,0,l),
(150,0,l),
(150,150,l),
(0,150,l)
);
},
{
closed = 1;
nodes = (
(0,900,l),
(150,900,l),
(150,1050,l),
(0,1050,l)
);
},
{
closed = 1;
nodes = (
(150,1050,l),
(300,1050,l),
(300,1200,l),
(150,1200,l)
);
}
);
width = 300;
}
);
unicode = 205;
},
{
glyphname = Icircumflex;
lastChange = "2023-07-19 15:05:53 +0000";
layers = (
{
layerId = m01;
shapes = (
{
closed = 1;
nodes = (
(0,600,l),
(150,600,l),
(150,750,l),
(0,750,l)
);
},
{
closed = 1;
nodes = (
(0,450,l),
(150,450,l),
(150,600,l),
(0,600,l)
);
},
{
closed = 1;
nodes = (
(0,300,l),
(150,300,l),
(150,450,l),
(0,450,l)
);
},
{
closed = 1;
nodes = (
(0,150,l),
(150,150,l),
(150,300,l),
(0,300,l)
);
},
{
closed = 1;
nodes = (
(0,0,l),
(150,0,l),
(150,150,l),
(0,150,l)
);
},
{
closed = 1;
nodes = (
(0,1050,l),
(150,1050,l),
(150,1200,l),
(0,1200,l)
);
},
{
closed = 1;
nodes = (
(-150,900,l),
(0,900,l),
(0,1050,l),
(-150,1050,l)
);
},
{
closed = 1;
nodes = (
(150,900,l),
(300,900,l),
(300,1050,l),
(150,1050,l)
);
}
);
width = 300;
}
);
unicode = 206;
},
{
glyphname = Idieresis;
lastChange = "2023-07-19 15:06:00 +0000";
layers = (
{
layerId = m01;
shapes = (
{
closed = 1;
nodes = (
(0,600,l),
(150,600,l),
(150,750,l),
(0,750,l)
);
},
{
closed = 1;
nodes = (
(0,450,l),
(150,450,l),
(150,600,l),
(0,600,l)
);
},
{
closed = 1;
nodes = (
(0,300,l),
(150,300,l),
(150,450,l),
(0,450,l)
);
},
{
closed = 1;
nodes = (
(0,150,l),
(150,150,l),
(150,300,l),
(0,300,l)
);
},
{
closed = 1;
nodes = (
(0,0,l),
(150,0,l),
(150,150,l),
(0,150,l)
);
},
{
closed = 1;
nodes = (
(-150,900,l),
(0,900,l),
(0,1050,l),
(-150,1050,l)
);
},
{
closed = 1;
nodes = (
(150,900,l),
(300,900,l),
(300,1050,l),
(150,1050,l)
);
}
);
width = 300;
}
);
unicode = 207;
},
{
glyphname = Igrave;
lastChange = "2023-07-19 15:06:07 +0000";
layers = (
{
layerId = m01;
shapes = (
{
closed = 1;
nodes = (
(0,600,l),
(150,600,l),
(150,750,l),
(0,750,l)
);
},
{
closed = 1;
nodes = (
(0,450,l),
(150,450,l),
(150,600,l),
(0,600,l)
);
},
{
closed = 1;
nodes = (
(0,300,l),
(150,300,l),
(150,450,l),
(0,450,l)
);
},
{
closed = 1;
nodes = (
(0,150,l),
(150,150,l),
(150,300,l),
(0,300,l)
);
},
{
closed = 1;
nodes = (
(0,0,l),
(150,0,l),
(150,150,l),
(0,150,l)
);
},
{
closed = 1;
nodes = (
(0,900,l),
(150,900,l),
(150,1050,l),
(0,1050,l)
);
},
{
closed = 1;
nodes = (
(-150,1050,l),
(0,1050,l),
(0,1200,l),
(-150,1200,l)
);
}
);
width = 300;
}
);
unicode = 204;
},
{
glyphname = Imacron;
lastChange = "2023-07-19 15:06:12 +0000";
layers = (
{
layerId = m01;
shapes = (
{
closed = 1;
nodes = (
(0,600,l),
(150,600,l),
(150,750,l),
(0,750,l)
);
},
{
closed = 1;
nodes = (
(0,450,l),
(150,450,l),
(150,600,l),
(0,600,l)
);
},
{
closed = 1;
nodes = (
(0,300,l),
(150,300,l),
(150,450,l),
(0,450,l)
);
},
{
closed = 1;
nodes = (
(0,150,l),
(150,150,l),
(150,300,l),
(0,300,l)
);
},
{
closed = 1;
nodes = (
(0,0,l),
(150,0,l),
(150,150,l),
(0,150,l)
);
},
{
closed = 1;
nodes = (
(-150,900,l),
(0,900,l),
(0,1050,l),
(-150,1050,l)
);
},
{
closed = 1;
nodes = (
(0,900,l),
(150,900,l),
(150,1050,l),
(0,1050,l)
);
},
{
closed = 1;
nodes = (
(150,900,l),
(300,900,l),
(300,1050,l),
(150,1050,l)
);
}
);
width = 300;
}
);
unicode = 298;
},
{
glyphname = Jacute;
lastChange = "2023-07-19 15:06:19 +0000";
layers = (
{
layerId = m01;
shapes = (
{
closed = 1;
nodes = (
(150,600,l),
(300,600,l),
(300,750,l),
(150,750,l)
);
},
{
closed = 1;
nodes = (
(150,450,l),
(300,450,l),
(300,600,l),
(150,600,l)
);
},
{
closed = 1;
nodes = (
(150,300,l),
(300,300,l),
(300,450,l),
(150,450,l)
);
},
{
closed = 1;
nodes = (
(150,150,l),
(300,150,l),
(300,300,l),
(150,300,l)
);
},
{
closed = 1;
nodes = (
(0,0,l),
(150,0,l),
(150,150,l),
(0,150,l)
);
},
{
closed = 1;
nodes = (
(150,900,l),
(300,900,l),
(300,1050,l),
(150,1050,l)
);
},
{
closed = 1;
nodes = (
(300,1050,l),
(450,1050,l),
(450,1200,l),
(300,1200,l)
);
}
);
width = 450;
}
);
},
{
glyphname = Lacute;
lastChange = "2023-10-27 20:01:55 +0000";
layers = (
{
anchors = (
{
name = bottom;
pos = (300,0);
},
{
name = center;
pos = (300,450);
},
{
name = top.case;
pos = (0,750);
}
);
layerId = m01;
shapes = (
{
closed = 1;
nodes = (
(0,600,l),
(150,600,l),
(150,750,l),
(0,750,l)
);
},
{
closed = 1;
nodes = (
(0,450,l),
(150,450,l),
(150,600,l),
(0,600,l)
);
},
{
closed = 1;
nodes = (
(0,300,l),
(150,300,l),
(150,450,l),
(0,450,l)
);
},
{
closed = 1;
nodes = (
(0,150,l),
(150,150,l),
(150,300,l),
(0,300,l)
);
},
{
closed = 1;
nodes = (
(0,0,l),
(150,0,l),
(150,150,l),
(0,150,l)
);
},
{
closed = 1;
nodes = (
(150,0,l),
(300,0,l),
(300,150,l),
(150,150,l)
);
},
{
closed = 1;
nodes = (
(0,900,l),
(150,900,l),
(150,1050,l),
(0,1050,l)
);
},
{
closed = 1;
nodes = (
(150,1050,l),
(300,1050,l),
(300,1200,l),
(150,1200,l)
);
}
);
width = 450;
}
);
unicode = 313;
},
{
glyphname = Oacute;
lastChange = "2023-10-27 20:02:39 +0000";
layers = (
{
anchors = (
{
name = bottom;
pos = (150,0);
},
{
name = top.case;
pos = (150,750);
}
);
layerId = m01;
shapes = (
{
closed = 1;
nodes = (
(0,600,l),
(150,600,l),
(150,750,l),
(0,750,l)
);
},
{
closed = 1;
nodes = (
(150,600,l),
(300,600,l),
(300,750,l),
(150,750,l)
);
},
{
closed = 1;
nodes = (
(300,600,l),
(450,600,l),
(450,750,l),
(300,750,l)
);
},
{
closed = 1;
nodes = (
(300,450,l),
(450,450,l),
(450,600,l),
(300,600,l)
);
},
{
closed = 1;
nodes = (
(300,300,l),
(450,300,l),
(450,450,l),
(300,450,l)
);
},
{
closed = 1;
nodes = (
(300,150,l),
(450,150,l),
(450,300,l),
(300,300,l)
);
},
{
closed = 1;
nodes = (
(300,0,l),
(450,0,l),
(450,150,l),
(300,150,l)
);
},
{
closed = 1;
nodes = (
(150,0,l),
(300,0,l),
(300,150,l),
(150,150,l)
);
},
{
closed = 1;
nodes = (
(0,0,l),
(150,0,l),
(150,150,l),
(0,150,l)
);
},
{
closed = 1;
nodes = (
(0,150,l),
(150,150,l),
(150,300,l),
(0,300,l)
);
},
{
closed = 1;
nodes = (
(0,300,l),
(150,300,l),
(150,450,l),
(0,450,l)
);
},
{
closed = 1;
nodes = (
(0,450,l),
(150,450,l),
(150,600,l),
(0,600,l)
);
},
{
closed = 1;
nodes = (
(150,900,l),
(300,900,l),
(300,1050,l),
(150,1050,l)
);
},
{
closed = 1;
nodes = (
(300,1050,l),
(450,1050,l),
(450,1200,l),
(300,1200,l)
);
}
);
width = 600;
}
);
unicode = 211;
},
{
glyphname = Wacute;
lastChange = "2023-07-19 15:06:45 +0000";
layers = (
{
layerId = m01;
shapes = (
{
closed = 1;
nodes = (
(0,600,l),
(150,600,l),
(150,750,l),
(0,750,l)
);
},
{
closed = 1;
nodes = (
(0,450,l),
(150,450,l),
(150,600,l),
(0,600,l)
);
},
{
closed = 1;
nodes = (
(0,300,l),
(150,300,l),
(150,450,l),
(0,450,l)
);
},
{
closed = 1;
nodes = (
(0,150,l),
(150,150,l),
(150,300,l),
(0,300,l)
);
},
{
closed = 1;
nodes = (
(150,0,l),
(300,0,l),
(300,150,l),
(150,150,l)
);
},
{
closed = 1;
nodes = (
(300,150,l),
(450,150,l),
(450,300,l),
(300,300,l)
);
},
{
closed = 1;
nodes = (
(300,300,l),
(450,300,l),
(450,450,l),
(300,450,l)
);
},
{
closed = 1;
nodes = (
(300,450,l),
(450,450,l),
(450,600,l),
(300,600,l)
);
},
{
closed = 1;
nodes = (
(300,600,l),
(450,600,l),
(450,750,l),
(300,750,l)
);
},
{
closed = 1;
nodes = (
(450,0,l),
(600,0,l),
(600,150,l),
(450,150,l)
);
},
{
closed = 1;
nodes = (
(600,150,l),
(750,150,l),
(750,300,l),
(600,300,l)
);
},
{
closed = 1;
nodes = (
(600,300,l),
(750,300,l),
(750,450,l),
(600,450,l)
);
},
{
closed = 1;
nodes = (
(600,450,l),
(750,450,l),
(750,600,l),
(600,600,l)
);
},
{
closed = 1;
nodes = (
(600,600,l),
(750,600,l),
(750,750,l),
(600,750,l)
);
},
{
closed = 1;
nodes = (
(300,900,l),
(450,900,l),
(450,1050,l),
(300,1050,l)
);
},
{
closed = 1;
nodes = (
(450,1050,l),
(600,1050,l),
(600,1200,l),
(450,1200,l)
);
}
);
width = 900;
}
);
unicode = 7810;
},
{
glyphname = Wcircumflex;
lastChange = "2023-07-19 15:06:52 +0000";
layers = (
{
layerId = m01;
shapes = (
{
closed = 1;
nodes = (
(0,600,l),
(150,600,l),
(150,750,l),
(0,750,l)
);
},
{
closed = 1;
nodes = (
(0,450,l),
(150,450,l),
(150,600,l),
(0,600,l)
);
},
{
closed = 1;
nodes = (
(0,300,l),
(150,300,l),
(150,450,l),
(0,450,l)
);
},
{
closed = 1;
nodes = (
(0,150,l),
(150,150,l),
(150,300,l),
(0,300,l)
);
},
{
closed = 1;
nodes = (
(150,0,l),
(300,0,l),
(300,150,l),
(150,150,l)
);
},
{
closed = 1;
nodes = (
(300,150,l),
(450,150,l),
(450,300,l),
(300,300,l)
);
},
{
closed = 1;
nodes = (
(300,300,l),
(450,300,l),
(450,450,l),
(300,450,l)
);
},
{
closed = 1;
nodes = (
(300,450,l),
(450,450,l),
(450,600,l),
(300,600,l)
);
},
{
closed = 1;
nodes = (
(300,600,l),
(450,600,l),
(450,750,l),
(300,750,l)
);
},
{
closed = 1;
nodes = (
(450,0,l),
(600,0,l),
(600,150,l),
(450,150,l)
);
},
{
closed = 1;
nodes = (
(600,150,l),
(750,150,l),
(750,300,l),
(600,300,l)
);
},
{
closed = 1;
nodes = (
(600,300,l),
(750,300,l),
(750,450,l),
(600,450,l)
);
},
{
closed = 1;
nodes = (
(600,450,l),
(750,450,l),
(750,600,l),
(600,600,l)
);
},
{
closed = 1;
nodes = (
(600,600,l),
(750,600,l),
(750,750,l),
(600,750,l)
);
},
{
closed = 1;
nodes = (
(300,1050,l),
(450,1050,l),
(450,1200,l),
(300,1200,l)
);
},
{
closed = 1;
nodes = (
(150,900,l),
(300,900,l),
(300,1050,l),
(150,1050,l)
);
},
{
closed = 1;
nodes = (
(450,900,l),
(600,900,l),
(600,1050,l),
(450,1050,l)
);
}
);
width = 900;
}
);
unicode = 372;
},
{
glyphname = Wdieresis;
lastChange = "2023-07-19 15:06:57 +0000";
layers = (
{
layerId = m01;
shapes = (
{
closed = 1;
nodes = (
(0,600,l),
(150,600,l),
(150,750,l),
(0,750,l)
);
},
{
closed = 1;
nodes = (
(0,450,l),
(150,450,l),
(150,600,l),
(0,600,l)
);
},
{
closed = 1;
nodes = (
(0,300,l),
(150,300,l),
(150,450,l),
(0,450,l)
);
},
{
closed = 1;
nodes = (
(0,150,l),
(150,150,l),
(150,300,l),
(0,300,l)
);
},
{
closed = 1;
nodes = (
(150,0,l),
(300,0,l),
(300,150,l),
(150,150,l)
);
},
{
closed = 1;
nodes = (
(300,150,l),
(450,150,l),
(450,300,l),
(300,300,l)
);
},
{
closed = 1;
nodes = (
(300,300,l),
(450,300,l),
(450,450,l),
(300,450,l)
);
},
{
closed = 1;
nodes = (
(300,450,l),
(450,450,l),
(450,600,l),
(300,600,l)
);
},
{
closed = 1;
nodes = (
(300,600,l),
(450,600,l),
(450,750,l),
(300,750,l)
);
},
{
closed = 1;
nodes = (
(450,0,l),
(600,0,l),
(600,150,l),
(450,150,l)
);
},
{
closed = 1;
nodes = (
(600,150,l),
(750,150,l),
(750,300,l),
(600,300,l)
);
},
{
closed = 1;
nodes = (
(600,300,l),
(750,300,l),
(750,450,l),
(600,450,l)
);
},
{
closed = 1;
nodes = (
(600,450,l),
(750,450,l),
(750,600,l),
(600,600,l)
);
},
{
closed = 1;
nodes = (
(600,600,l),
(750,600,l),
(750,750,l),
(600,750,l)
);
},
{
closed = 1;
nodes = (
(150,900,l),
(300,900,l),
(300,1050,l),
(150,1050,l)
);
},
{
closed = 1;
nodes = (
(450,900,l),
(600,900,l),
(600,1050,l),
(450,1050,l)
);
}
);
width = 900;
}
);
unicode = 7812;
},
{
glyphname = Wgrave;
lastChange = "2023-07-19 15:07:03 +0000";
layers = (
{
layerId = m01;
shapes = (
{
closed = 1;
nodes = (
(0,600,l),
(150,600,l),
(150,750,l),
(0,750,l)
);
},
{
closed = 1;
nodes = (
(0,450,l),
(150,450,l),
(150,600,l),
(0,600,l)
);
},
{
closed = 1;
nodes = (
(0,300,l),
(150,300,l),
(150,450,l),
(0,450,l)
);
},
{
closed = 1;
nodes = (
(0,150,l),
(150,150,l),
(150,300,l),
(0,300,l)
);
},
{
closed = 1;
nodes = (
(150,0,l),
(300,0,l),
(300,150,l),
(150,150,l)
);
},
{
closed = 1;
nodes = (
(300,150,l),
(450,150,l),
(450,300,l),
(300,300,l)
);
},
{
closed = 1;
nodes = (
(300,300,l),
(450,300,l),
(450,450,l),
(300,450,l)
);
},
{
closed = 1;
nodes = (
(300,450,l),
(450,450,l),
(450,600,l),
(300,600,l)
);
},
{
closed = 1;
nodes = (
(300,600,l),
(450,600,l),
(450,750,l),
(300,750,l)
);
},
{
closed = 1;
nodes = (
(450,0,l),
(600,0,l),
(600,150,l),
(450,150,l)
);
},
{
closed = 1;
nodes = (
(600,150,l),
(750,150,l),
(750,300,l),
(600,300,l)
);
},
{
closed = 1;
nodes = (
(600,300,l),
(750,300,l),
(750,450,l),
(600,450,l)
);
},
{
closed = 1;
nodes = (
(600,450,l),
(750,450,l),
(750,600,l),
(600,600,l)
);
},
{
closed = 1;
nodes = (
(600,600,l),
(750,600,l),
(750,750,l),
(600,750,l)
);
},
{
closed = 1;
nodes = (
(300,900,l),
(450,900,l),
(450,1050,l),
(300,1050,l)
);
},
{
closed = 1;
nodes = (
(150,1050,l),
(300,1050,l),
(300,1200,l),
(150,1200,l)
);
}
);
width = 900;
}
);
unicode = 7808;
},
{
glyphname = cacute;
lastChange = "2023-10-27 19:54:58 +0000";
layers = (
{
anchors = (
{
name = bottom;
pos = (300,0);
},
{
name = top;
pos = (150,600);
}
);
layerId = m01;
shapes = (
{
closed = 1;
nodes = (
(150,450,l),
(300,450,l),
(300,600,l),
(150,600,l)
);
},
{
closed = 1;
nodes = (
(0,300,l),
(150,300,l),
(150,450,l),
(0,450,l)
);
},
{
closed = 1;
nodes = (
(0,150,l),
(150,150,l),
(150,300,l),
(0,300,l)
);
},
{
closed = 1;
nodes = (
(150,0,l),
(300,0,l),
(300,150,l),
(150,150,l)
);
},
{
closed = 1;
nodes = (
(300,450,l),
(450,450,l),
(450,600,l),
(300,600,l)
);
},
{
closed = 1;
nodes = (
(300,0,l),
(450,0,l),
(450,150,l),
(300,150,l)
);
},
{
closed = 1;
nodes = (
(150,750,l),
(300,750,l),
(300,900,l),
(150,900,l)
);
},
{
closed = 1;
nodes = (
(300,900,l),
(450,900,l),
(450,1050,l),
(300,1050,l)
);
}
);
width = 600;
}
);
unicode = 263;
},
{
glyphname = iacute;
lastChange = "2023-07-19 15:07:46 +0000";
layers = (
{
layerId = m01;
shapes = (
{
closed = 1;
nodes = (
(0,300,l),
(150,300,l),
(150,450,l),
(0,450,l)
);
},
{
closed = 1;
nodes = (
(0,150,l),
(150,150,l),
(150,300,l),
(0,300,l)
);
},
{
closed = 1;
nodes = (
(0,0,l),
(150,0,l),
(150,150,l),
(0,150,l)
);
},
{
closed = 1;
nodes = (
(0,600,l),
(150,600,l),
(150,750,l),
(0,750,l)
);
},
{
closed = 1;
nodes = (
(150,750,l),
(300,750,l),
(300,900,l),
(150,900,l)
);
}
);
width = 300;
}
);
unicode = 237;
},
{
glyphname = icircumflex;
lastChange = "2023-07-19 15:07:44 +0000";
layers = (
{
layerId = m01;
shapes = (
{
closed = 1;
nodes = (
(0,300,l),
(150,300,l),
(150,450,l),
(0,450,l)
);
},
{
closed = 1;
nodes = (
(0,150,l),
(150,150,l),
(150,300,l),
(0,300,l)
);
},
{
closed = 1;
nodes = (
(0,0,l),
(150,0,l),
(150,150,l),
(0,150,l)
);
},
{
closed = 1;
nodes = (
(-150,600,l),
(0,600,l),
(0,750,l),
(-150,750,l)
);
},
{
closed = 1;
nodes = (
(0,750,l),
(150,750,l),
(150,900,l),
(0,900,l)
);
},
{
closed = 1;
nodes = (
(150,600,l),
(300,600,l),
(300,750,l),
(150,750,l)
);
}
);
width = 300;
}
);
unicode = 238;
},
{
glyphname = idieresis;
lastChange = "2023-07-19 15:07:41 +0000";
layers = (
{
layerId = m01;
shapes = (
{
closed = 1;
nodes = (
(0,300,l),
(150,300,l),
(150,450,l),
(0,450,l)
);
},
{
closed = 1;
nodes = (
(0,150,l),
(150,150,l),
(150,300,l),
(0,300,l)
);
},
{
closed = 1;
nodes = (
(0,0,l),
(150,0,l),
(150,150,l),
(0,150,l)
);
},
{
closed = 1;
nodes = (
(-150,600,l),
(0,600,l),
(0,750,l),
(-150,750,l)
);
},
{
closed = 1;
nodes = (
(150,600,l),
(300,600,l),
(300,750,l),
(150,750,l)
);
}
);
width = 300;
}
);
unicode = 239;
},
{
glyphname = igrave;
lastChange = "2023-07-19 15:07:37 +0000";
layers = (
{
layerId = m01;
shapes = (
{
closed = 1;
nodes = (
(0,300,l),
(150,300,l),
(150,450,l),
(0,450,l)
);
},
{
closed = 1;
nodes = (
(0,150,l),
(150,150,l),
(150,300,l),
(0,300,l)
);
},
{
closed = 1;
nodes = (
(0,0,l),
(150,0,l),
(150,150,l),
(0,150,l)
);
},
{
closed = 1;
nodes = (
(-150,750,l),
(0,750,l),
(0,900,l),
(-150,900,l)
);
},
{
closed = 1;
nodes = (
(0,600,l),
(150,600,l),
(150,750,l),
(0,750,l)
);
}
);
width = 300;
}
);
unicode = 236;
},
{
glyphname = imacron;
lastChange = "2023-07-19 15:07:33 +0000";
layers = (
{
layerId = m01;
shapes = (
{
closed = 1;
nodes = (
(0,300,l),
(150,300,l),
(150,450,l),
(0,450,l)
);
},
{
closed = 1;
nodes = (
(0,150,l),
(150,150,l),
(150,300,l),
(0,300,l)
);
},
{
closed = 1;
nodes = (
(0,0,l),
(150,0,l),
(150,150,l),
(0,150,l)
);
},
{
closed = 1;
nodes = (
(-150,600,l),
(0,600,l),
(0,750,l),
(-150,750,l)
);
},
{
closed = 1;
nodes = (
(0,600,l),
(150,600,l),
(150,750,l),
(0,750,l)
);
},
{
closed = 1;
nodes = (
(150,600,l),
(300,600,l),
(300,750,l),
(150,750,l)
);
}
);
width = 300;
}
);
unicode = 299;
},
{
glyphname = jacute;
lastChange = "2023-07-24 13:12:36 +0000";
layers = (
{
layerId = m01;
shapes = (
{
closed = 1;
nodes = (
(0,300,l),
(150,300,l),
(150,450,l),
(0,450,l)
);
},
{
closed = 1;
nodes = (
(0,150,l),
(150,150,l),
(150,300,l),
(0,300,l)
);
},
{
closed = 1;
nodes = (
(0,0,l),
(150,0,l),
(150,150,l),
(0,150,l)
);
},
{
closed = 1;
nodes = (
(-150,-150,l),
(0,-150,l),
(0,0,l),
(-150,0,l)
);
},
{
closed = 1;
nodes = (
(0,600,l),
(150,600,l),
(150,750,l),
(0,750,l)
);
},
{
closed = 1;
nodes = (
(150,750,l),
(300,750,l),
(300,900,l),
(150,900,l)
);
}
);
width = 300;
}
);
},
{
glyphname = wacute;
lastChange = "2023-07-19 15:08:29 +0000";
layers = (
{
layerId = m01;
shapes = (
{
closed = 1;
nodes = (
(0,450,l),
(150,450,l),
(150,600,l),
(0,600,l)
);
},
{
closed = 1;
nodes = (
(0,300,l),
(150,300,l),
(150,450,l),
(0,450,l)
);
},
{
closed = 1;
nodes = (
(0,150,l),
(150,150,l),
(150,300,l),
(0,300,l)
);
},
{
closed = 1;
nodes = (
(150,0,l),
(300,0,l),
(300,150,l),
(150,150,l)
);
},
{
closed = 1;
nodes = (
(300,150,l),
(450,150,l),
(450,300,l),
(300,300,l)
);
},
{
closed = 1;
nodes = (
(300,300,l),
(450,300,l),
(450,450,l),
(300,450,l)
);
},
{
closed = 1;
nodes = (
(300,450,l),
(450,450,l),
(450,600,l),
(300,600,l)
);
},
{
closed = 1;
nodes = (
(450,0,l),
(600,0,l),
(600,150,l),
(450,150,l)
);
},
{
closed = 1;
nodes = (
(600,150,l),
(750,150,l),
(750,300,l),
(600,300,l)
);
},
{
closed = 1;
nodes = (
(600,300,l),
(750,300,l),
(750,450,l),
(600,450,l)
);
},
{
closed = 1;
nodes = (
(600,450,l),
(750,450,l),
(750,600,l),
(600,600,l)
);
},
{
closed = 1;
nodes = (
(300,750,l),
(450,750,l),
(450,900,l),
(300,900,l)
);
},
{
closed = 1;
nodes = (
(450,900,l),
(600,900,l),
(600,1050,l),
(450,1050,l)
);
}
);
width = 900;
}
);
unicode = 7811;
},
{
glyphname = wcircumflex;
lastChange = "2023-07-19 15:08:35 +0000";
layers = (
{
layerId = m01;
shapes = (
{
closed = 1;
nodes = (
(0,450,l),
(150,450,l),
(150,600,l),
(0,600,l)
);
},
{
closed = 1;
nodes = (
(0,300,l),
(150,300,l),
(150,450,l),
(0,450,l)
);
},
{
closed = 1;
nodes = (
(0,150,l),
(150,150,l),
(150,300,l),
(0,300,l)
);
},
{
closed = 1;
nodes = (
(150,0,l),
(300,0,l),
(300,150,l),
(150,150,l)
);
},
{
closed = 1;
nodes = (
(300,150,l),
(450,150,l),
(450,300,l),
(300,300,l)
);
},
{
closed = 1;
nodes = (
(300,300,l),
(450,300,l),
(450,450,l),
(300,450,l)
);
},
{
closed = 1;
nodes = (
(300,450,l),
(450,450,l),
(450,600,l),
(300,600,l)
);
},
{
closed = 1;
nodes = (
(450,0,l),
(600,0,l),
(600,150,l),
(450,150,l)
);
},
{
closed = 1;
nodes = (
(600,150,l),
(750,150,l),
(750,300,l),
(600,300,l)
);
},
{
closed = 1;
nodes = (
(600,300,l),
(750,300,l),
(750,450,l),
(600,450,l)
);
},
{
closed = 1;
nodes = (
(600,450,l),
(750,450,l),
(750,600,l),
(600,600,l)
);
},
{
closed = 1;
nodes = (
(150,750,l),
(300,750,l),
(300,900,l),
(150,900,l)
);
},
{
closed = 1;
nodes = (
(300,900,l),
(450,900,l),
(450,1050,l),
(300,1050,l)
);
},
{
closed = 1;
nodes = (
(450,750,l),
(600,750,l),
(600,900,l),
(450,900,l)
);
}
);
width = 900;
}
);
unicode = 373;
},
{
glyphname = wdieresis;
lastChange = "2023-07-19 15:08:40 +0000";
layers = (
{
layerId = m01;
shapes = (
{
closed = 1;
nodes = (
(0,450,l),
(150,450,l),
(150,600,l),
(0,600,l)
);
},
{
closed = 1;
nodes = (
(0,300,l),
(150,300,l),
(150,450,l),
(0,450,l)
);
},
{
closed = 1;
nodes = (
(0,150,l),
(150,150,l),
(150,300,l),
(0,300,l)
);
},
{
closed = 1;
nodes = (
(150,0,l),
(300,0,l),
(300,150,l),
(150,150,l)
);
},
{
closed = 1;
nodes = (
(300,150,l),
(450,150,l),
(450,300,l),
(300,300,l)
);
},
{
closed = 1;
nodes = (
(300,300,l),
(450,300,l),
(450,450,l),
(300,450,l)
);
},
{
closed = 1;
nodes = (
(300,450,l),
(450,450,l),
(450,600,l),
(300,600,l)
);
},
{
closed = 1;
nodes = (
(450,0,l),
(600,0,l),
(600,150,l),
(450,150,l)
);
},
{
closed = 1;
nodes = (
(600,150,l),
(750,150,l),
(750,300,l),
(600,300,l)
);
},
{
closed = 1;
nodes = (
(600,300,l),
(750,300,l),
(750,450,l),
(600,450,l)
);
},
{
closed = 1;
nodes = (
(600,450,l),
(750,450,l),
(750,600,l),
(600,600,l)
);
},
{
closed = 1;
nodes = (
(150,750,l),
(300,750,l),
(300,900,l),
(150,900,l)
);
},
{
closed = 1;
nodes = (
(450,750,l),
(600,750,l),
(600,900,l),
(450,900,l)
);
}
);
width = 900;
}
);
unicode = 7813;
},
{
glyphname = wgrave;
lastChange = "2023-07-19 15:08:48 +0000";
layers = (
{
layerId = m01;
shapes = (
{
closed = 1;
nodes = (
(0,450,l),
(150,450,l),
(150,600,l),
(0,600,l)
);
},
{
closed = 1;
nodes = (
(0,300,l),
(150,300,l),
(150,450,l),
(0,450,l)
);
},
{
closed = 1;
nodes = (
(0,150,l),
(150,150,l),
(150,300,l),
(0,300,l)
);
},
{
closed = 1;
nodes = (
(150,0,l),
(300,0,l),
(300,150,l),
(150,150,l)
);
},
{
closed = 1;
nodes = (
(300,150,l),
(450,150,l),
(450,300,l),
(300,300,l)
);
},
{
closed = 1;
nodes = (
(300,300,l),
(450,300,l),
(450,450,l),
(300,450,l)
);
},
{
closed = 1;
nodes = (
(300,450,l),
(450,450,l),
(450,600,l),
(300,600,l)
);
},
{
closed = 1;
nodes = (
(450,0,l),
(600,0,l),
(600,150,l),
(450,150,l)
);
},
{
closed = 1;
nodes = (
(600,150,l),
(750,150,l),
(750,300,l),
(600,300,l)
);
},
{
closed = 1;
nodes = (
(600,300,l),
(750,300,l),
(750,450,l),
(600,450,l)
);
},
{
closed = 1;
nodes = (
(600,450,l),
(750,450,l),
(750,600,l),
(600,600,l)
);
},
{
closed = 1;
nodes = (
(150,900,l),
(300,900,l),
(300,1050,l),
(150,1050,l)
);
},
{
closed = 1;
nodes = (
(300,750,l),
(450,750,l),
(450,900,l),
(300,900,l)
);
}
);
width = 900;
}
);
unicode = 7809;
},
{
glyphname = zacute;
lastChange = "2023-07-19 15:08:56 +0000";
layers = (
{
layerId = m01;
shapes = (
{
closed = 1;
nodes = (
(0,450,l),
(150,450,l),
(150,600,l),
(0,600,l)
);
},
{
closed = 1;
nodes = (
(150,450,l),
(300,450,l),
(300,600,l),
(150,600,l)
);
},
{
closed = 1;
nodes = (
(450,450,l),
(600,450,l),
(600,600,l),
(450,600,l)
);
},
{
closed = 1;
nodes = (
(300,300,l),
(450,300,l),
(450,450,l),
(300,450,l)
);
},
{
closed = 1;
nodes = (
(150,150,l),
(300,150,l),
(300,300,l),
(150,300,l)
);
},
{
closed = 1;
nodes = (
(0,0,l),
(150,0,l),
(150,150,l),
(0,150,l)
);
},
{
closed = 1;
nodes = (
(300,0,l),
(450,0,l),
(450,150,l),
(300,150,l)
);
},
{
closed = 1;
nodes = (
(450,0,l),
(600,0,l),
(600,150,l),
(450,150,l)
);
},
{
closed = 1;
nodes = (
(150,750,l),
(300,750,l),
(300,900,l),
(150,900,l)
);
},
{
closed = 1;
nodes = (
(300,900,l),
(450,900,l),
(450,1050,l),
(300,1050,l)
);
}
);
width = 750;
}
);
unicode = 378;
},
{
glyphname = zcaron;
lastChange = "2023-07-19 15:09:00 +0000";
layers = (
{
layerId = m01;
shapes = (
{
closed = 1;
nodes = (
(0,450,l),
(150,450,l),
(150,600,l),
(0,600,l)
);
},
{
closed = 1;
nodes = (
(150,450,l),
(300,450,l),
(300,600,l),
(150,600,l)
);
},
{
closed = 1;
nodes = (
(450,450,l),
(600,450,l),
(600,600,l),
(450,600,l)
);
},
{
closed = 1;
nodes = (
(300,300,l),
(450,300,l),
(450,450,l),
(300,450,l)
);
},
{
closed = 1;
nodes = (
(150,150,l),
(300,150,l),
(300,300,l),
(150,300,l)
);
},
{
closed = 1;
nodes = (
(0,0,l),
(150,0,l),
(150,150,l),
(0,150,l)
);
},
{
closed = 1;
nodes = (
(300,0,l),
(450,0,l),
(450,150,l),
(300,150,l)
);
},
{
closed = 1;
nodes = (
(450,0,l),
(600,0,l),
(600,150,l),
(450,150,l)
);
},
{
closed = 1;
nodes = (
(150,900,l),
(300,900,l),
(300,1050,l),
(150,1050,l)
);
},
{
closed = 1;
nodes = (
(300,750,l),
(450,750,l),
(450,900,l),
(300,900,l)
);
},
{
closed = 1;
nodes = (
(450,900,l),
(600,900,l),
(600,1050,l),
(450,1050,l)
);
}
);
width = 750;
}
);
unicode = 382;
},
{
glyphname = pixel;
lastChange = "2023-06-09 20:47:27 +0000";
layers = (
{
layerId = m01;
shapes = (
{
closed = 1;
nodes = (
(0,0,l),
(150,0,l),
(150,150,l),
(0,150,l)
);
}
